<mxfile host="app.diagrams.net" modified="2023-04-09T07:02:02.845Z" agent="Mozilla/5.0 (Windows NT 10.0; Win64; x64) AppleWebKit/537.36 (KHTML, like Gecko) Chrome/111.0.0.0 Safari/537.36" version="21.1.5" etag="8GlvRPAqqsI3nUABK_oy" type="github">
  <diagram name="第 1 页" id="q0XqCOJWzBecfLWAUeSO">
    <mxGraphModel>
      <root>
        <mxCell id="0" />
        <mxCell id="1" parent="0" />
      </root>
    </mxGraphModel>
  </diagram>
</mxfile>
